<svg width="128" height="128" xmlns="http://www.w3.org/2000/svg">
 <title>spoti-ignore</title>

 <g>
  <title>Layer 1</title>
  <g stroke="null">
   <path fill="none" d="m4.5,11.80769l109.76922,0l0,109.76922l-109.76922,0l0,-109.76922z"/>
   <g stroke="null">
    <path fill="#1db954" d="m91.75641,15.92491a55.51281,55.51281 0 1 1 -83.26922,48.0741l0.02776,-1.79862a55.51281,55.51281 0 0 1 83.24146,-46.27548m-12.03518,64.42262c-7.13339,-10.69732 -24.17028,-11.83533 -35.45603,-4.31334a5.55128,5.55128 0 0 0 6.16192,9.23733c6.63378,-4.42437 16.73156,-3.74712 20.05678,1.23793a5.55128,5.55128 0 1 0 9.23733,-6.16192m7.03903,-18.01391c-13.70612,-10.28097 -32.72481,-12.14065 -47.78543,-3.2697a5.55128,5.55128 0 0 0 5.6401,9.57041c11.02484,-6.50055 25.22502,-5.10718 35.48379,2.58134a5.55128,5.55128 0 0 0 6.66154,-8.88205m7.93833,-16.9203c-20.41206,-12.75685 -43.11125,-11.94636 -60.93642,-3.031a5.55128,5.55128 0 0 0 4.96285,9.92569c14.62763,-7.31104 33.29103,-7.97719 50.08921,2.52028a5.55128,5.55128 0 1 0 5.88436,-9.41497"/>
   </g>
   <path fill="#bf0000" stroke-width="0" stroke-opacity="0" stroke="#000000" d="m39.84744,33.26792l24.20869,24.20411l24.20869,-24.20411a4.57372,4.57372 0 0 1 6.46724,6.46724l-24.20411,24.20869l24.20411,24.20869a4.57372,4.57372 0 0 1 -6.46724,6.46724l-24.20869,-24.20411l-24.20869,24.20411a4.57372,4.57372 0 1 1 -6.46724,-6.46724l24.20411,-24.20869l-24.20411,-24.20869a4.57372,4.57372 0 0 1 6.46724,-6.46724"/>
  </g>
 </g>
</svg>